HIERARCHY
ROOT joint_0
{
	OFFSET 0.000000 0.000000 0.000000
	CHANNELS 6 Xposition Yposition Zposition Zrotation Yrotation Xrotation 
	JOINT joint_1
	{
		OFFSET 6.579712 -2.778931 100.531982
		CHANNELS 3 Zrotation Yrotation Xrotation
		JOINT joint_2
		{
			OFFSET -3.313232 -1.302856 91.974976
			CHANNELS 3 Zrotation Yrotation Xrotation
			JOINT joint_3
			{
				OFFSET -3.421509 -1.641846 91.864014
				CHANNELS 3 Zrotation Yrotation Xrotation
				JOINT joint_4
				{
					OFFSET 7.697388 -4.642578 123.278931
					CHANNELS 3 Zrotation Yrotation Xrotation
					JOINT joint_5
					{
						OFFSET 24.842529 -5.941528 79.695068
						CHANNELS 3 Zrotation Yrotation Xrotation
						End Site
						{
							OFFSET 0.000000 0.000000 0.000000
						}
					}
				}
				JOINT joint_6
				{
					OFFSET -0.159668 -29.112976 68.364014
					CHANNELS 3 Zrotation Yrotation Xrotation
					JOINT joint_7
					{
						OFFSET -18.356079 -115.987061 -20.069092
						CHANNELS 3 Zrotation Yrotation Xrotation
						JOINT joint_8
						{
							OFFSET 31.719482 -11.733276 -267.170898
							CHANNELS 3 Zrotation Yrotation Xrotation
							JOINT joint_9
							{
								OFFSET 29.329956 -5.879517 -234.654053
								CHANNELS 3 Zrotation Yrotation Xrotation
								End Site
								{
									OFFSET 0.000000 0.000000 0.000000
								}
							}
						}
					}
				}
				JOINT joint_10
				{
					OFFSET 8.802979 23.897949 69.798950
					CHANNELS 3 Zrotation Yrotation Xrotation
					JOINT joint_11
					{
						OFFSET 21.159058 115.524292 -19.981934
						CHANNELS 3 Zrotation Yrotation Xrotation
						JOINT joint_12
						{
							OFFSET 18.809204 5.403442 -268.593018
							CHANNELS 3 Zrotation Yrotation Xrotation
							JOINT joint_13
							{
								OFFSET 20.807861 0.421265 -235.639038
								CHANNELS 3 Zrotation Yrotation Xrotation
								End Site
								{
									OFFSET 0.000000 0.000000 0.000000
								}
							}
						}
					}
				}
			}
		}
	}
	JOINT joint_14
	{
		OFFSET -9.713379 -79.513916 -99.348022
		CHANNELS 3 Zrotation Yrotation Xrotation
		JOINT joint_15
		{
			OFFSET -40.607788 -6.518372 -502.938019
			CHANNELS 3 Zrotation Yrotation Xrotation
			JOINT joint_16
			{
				OFFSET -19.807617 -7.437378 -399.590012
				CHANNELS 3 Zrotation Yrotation Xrotation
				JOINT joint_17
				{
					OFFSET 171.701660 -44.751282 -77.782000
					CHANNELS 3 Zrotation Yrotation Xrotation
					End Site
					{
						OFFSET 0.000000 0.000000 0.000000
					}
				}
			}
		}
	}
	JOINT joint_18
	{
		OFFSET 17.854858 79.618652 -98.128052
		CHANNELS 3 Zrotation Yrotation Xrotation
		JOINT joint_19
		{
			OFFSET -24.848877 16.861816 -503.722992
			CHANNELS 3 Zrotation Yrotation Xrotation
			JOINT joint_20
			{
				OFFSET -30.162476 14.470093 -398.750008
				CHANNELS 3 Zrotation Yrotation Xrotation
				JOINT joint_21
				{
					OFFSET 176.096680 -10.987549 -80.021000
					CHANNELS 3 Zrotation Yrotation Xrotation
					End Site
					{
						OFFSET 0.000000 0.000000 0.000000
					}
				}
			}
		}
	}
}
MOTION
Frames: 9
Frame Time: 0.016667
-1136.506226 858.638184 1098.380981 19.141328 0.704810 -0.889732 -0.129801 -1.613186 0.163828 -0.094197 0.250708 -0.061656 -0.101612 -0.330847 0.014043 -0.027650 1.047856 0.313997 0.000000 0.000000 0.000000 -0.172915 2.976586 1.100038 -0.040472 3.005872 0.818419 -0.131121 -1.945263 -1.660039 0.000000 0.000000 0.000000 0.827775 0.646385 1.115582 -0.269040 1.208625 -2.968698 0.115714 -2.588718 3.244566 0.000000 0.000000 0.000000 1.517506 -0.981581 0.788046 1.554527 0.494326 0.283615 1.618990 -2.154068 0.173056 0.000000 0.000000 0.000000 -1.897915 -0.935226 0.797556 -1.787458 0.988685 -0.095418 -1.810167 -1.176868 -0.895854 0.000000 0.000000 0.000000 
-1136.569214 858.618286 1098.385010 19.144961 0.706226 -0.891325 -0.126214 -1.597902 0.161440 -0.091056 0.248413 -0.061100 -0.098390 -0.326717 0.013851 -0.027786 1.048676 0.314402 0.000000 0.000000 0.000000 -0.179282 2.971993 1.106550 -0.040785 3.001858 0.814675 -0.130988 -1.945004 -1.659308 0.000000 0.000000 0.000000 0.830472 0.649737 1.113519 -0.269286 1.210760 -2.966574 0.115773 -2.587954 3.248457 0.000000 0.000000 0.000000 1.516149 -0.984957 0.788730 1.553149 0.490616 0.285769 1.617666 -2.153170 0.172682 0.000000 0.000000 0.000000 -1.899327 -0.941102 0.799668 -1.788452 0.990071 -0.096189 -1.811361 -1.180889 -0.896646 0.000000 0.000000 0.000000 
-1136.612427 858.599548 1098.385986 19.146964 0.707337 -0.892216 -0.122944 -1.588116 0.155907 -0.087856 0.247526 -0.058565 -0.095294 -0.325306 0.012402 -0.028750 1.052235 0.318081 0.000000 0.000000 0.000000 -0.183694 2.970316 1.114742 -0.041179 3.001350 0.811322 -0.131053 -1.944103 -1.659868 0.000000 0.000000 0.000000 0.833428 0.656451 1.110262 -0.269379 1.215690 -2.962725 0.115968 -2.586000 3.253063 0.000000 0.000000 0.000000 1.515363 -0.985855 0.789805 1.552551 0.484529 0.285752 1.616856 -2.151469 0.172752 0.000000 0.000000 0.000000 -1.900306 -0.944028 0.802011 -1.789129 0.988562 -0.098425 -1.812244 -1.184548 -0.897275 0.000000 0.000000 0.000000 
-1136.644043 858.584229 1098.385010 19.147470 0.708686 -0.892491 -0.120504 -1.581858 0.150431 -0.085456 0.247018 -0.058426 -0.092858 -0.323850 0.012663 -0.029376 1.056723 0.320860 0.000000 0.000000 0.000000 -0.185175 2.969472 1.122687 -0.041580 3.002079 0.808382 -0.131268 -1.942277 -1.661243 0.000000 0.000000 0.000000 0.838755 0.664764 1.105847 -0.269464 1.221568 -2.958784 0.116242 -2.583473 3.258247 0.000000 0.000000 0.000000 1.514898 -0.985689 0.790444 1.552287 0.476730 0.285170 1.616251 -2.148729 0.173186 0.000000 0.000000 0.000000 -1.900770 -0.945724 0.803982 -1.789378 0.985611 -0.101220 -1.812714 -1.188483 -0.897733 0.000000 0.000000 0.000000 
-1136.676270 858.570801 1098.384033 19.146117 0.709981 -0.892794 -0.118075 -1.573075 0.144899 -0.083074 0.247224 -0.056487 -0.090557 -0.323439 0.012224 -0.029845 1.061209 0.323131 0.000000 0.000000 0.000000 -0.186730 2.967627 1.130341 -0.041999 3.001788 0.805178 -0.131398 -1.941290 -1.662120 0.000000 0.000000 0.000000 0.843520 0.672252 1.100711 -0.269598 1.226761 -2.955796 0.116547 -2.581106 3.263618 0.000000 0.000000 0.000000 1.515167 -0.986564 0.790751 1.552685 0.470844 0.284960 1.616394 -2.146655 0.173786 0.000000 0.000000 0.000000 -1.900609 -0.948184 0.805598 -1.788949 0.984697 -0.103537 -1.812557 -1.192264 -0.897896 0.000000 0.000000 0.000000 
-1136.716431 858.560791 1098.383057 19.141615 0.712285 -0.893123 -0.116065 -1.559287 0.142170 -0.081472 0.244630 -0.056104 -0.088883 -0.319765 0.011720 -0.030304 1.061912 0.324593 0.000000 0.000000 0.000000 -0.186846 2.962082 1.137055 -0.042280 2.997841 0.802071 -0.131336 -1.939977 -1.661368 0.000000 0.000000 0.000000 0.850076 0.677557 1.094689 -0.269774 1.229452 -2.953567 0.116774 -2.579983 3.268345 0.000000 0.000000 0.000000 1.516581 -0.990913 0.790024 1.554036 0.468535 0.285824 1.617671 -2.145405 0.174686 0.000000 0.000000 0.000000 -1.899602 -0.953427 0.806264 -1.787590 0.987146 -0.104441 -1.811532 -1.196737 -0.897708 0.000000 0.000000 0.000000 
-1136.757202 858.552612 1098.383057 19.135198 0.714879 -0.893461 -0.113841 -1.543022 0.139929 -0.079762 0.241098 -0.055508 -0.087047 -0.314844 0.011910 -0.030626 1.060819 0.325235 0.000000 0.000000 0.000000 -0.187667 2.955031 1.143315 -0.042580 2.992258 0.798466 -0.131194 -1.939361 -1.660133 0.000000 0.000000 0.000000 0.855357 0.681687 1.087154 -0.270018 1.231044 -2.952119 0.117036 -2.579384 3.273752 0.000000 0.000000 0.000000 1.518632 -0.996619 0.789040 1.555972 0.467907 0.286933 1.619580 -2.144059 0.175899 0.000000 0.000000 0.000000 -1.897820 -0.959752 0.806555 -1.785401 0.991400 -0.104959 -1.809730 -1.200952 -0.897150 0.000000 0.000000 0.000000 
-1136.794922 858.547791 1098.384033 19.128700 0.716100 -0.894066 -0.111403 -1.523922 0.140063 -0.078055 0.237311 -0.056529 -0.085130 -0.309877 0.012626 -0.030716 1.058951 0.324989 0.000000 0.000000 0.000000 -0.191363 2.947621 1.149634 -0.042963 2.985955 0.794150 -0.130982 -1.939969 -1.658592 0.000000 0.000000 0.000000 0.857187 0.683782 1.081542 -0.270374 1.232080 -2.953624 0.117336 -2.578149 3.278524 0.000000 0.000000 0.000000 1.520513 -1.001403 0.788284 1.557722 0.469031 0.288141 1.621390 -2.143537 0.176852 0.000000 0.000000 0.000000 -1.896000 -0.965698 0.806293 -1.783170 0.998758 -0.104253 -1.807954 -1.206810 -0.896706 0.000000 0.000000 0.000000 
-1136.830322 858.544922 1098.386963 19.123422 0.715018 -0.895043 -0.108904 -1.500494 0.141052 -0.076389 0.232633 -0.056085 -0.083284 -0.304323 0.013267 -0.030820 1.055373 0.324459 0.000000 0.000000 0.000000 -0.199619 2.939679 1.156199 -0.043542 2.978642 0.788274 -0.130753 -1.942698 -1.657326 0.000000 0.000000 0.000000 0.853754 0.683001 1.079192 -0.270969 1.232729 -2.960662 0.117805 -2.574777 3.283278 0.000000 0.000000 0.000000 1.522125 -1.004488 0.788395 1.559308 0.472662 0.288432 1.623075 -2.143957 0.177506 0.000000 0.000000 0.000000 -1.894798 -0.971321 0.805387 -1.781526 1.011264 -0.101639 -1.806852 -1.215014 -0.896713 0.000000 0.000000 0.000000 
